<svg xmlns="http://www.w3.org/2000/svg" version="1.1" xmlns:xlink="http://www.w3.org/1999/xlink" xmlns:svgjs="http://svgjs.dev/svgjs" width="2500" height="250" preserveAspectRatio="none" viewBox="0 0 2500 250"><g mask="url(&quot;#SvgjsMask1831&quot;)" fill="none"><rect width="2500" height="250" x="0" y="0" fill="url(&quot;#SvgjsLinearGradient1832&quot;)"></rect><path d="M2500 0L2277.47 0L2500 90.98z" fill="rgba(255, 255, 255, .1)"></path><path d="M2277.47 0L2500 90.98L2500 129.58L1624.8999999999996 0z" fill="rgba(255, 255, 255, .075)"></path><path d="M1624.9 0L2500 129.58L2500 140.24L690.5200000000001 0z" fill="rgba(255, 255, 255, .05)"></path><path d="M690.52 0L2500 140.24L2500 145.5L576.12 0z" fill="rgba(255, 255, 255, .025)"></path><path d="M0 250L673.62 250L0 157.28z" fill="rgba(0, 0, 0, .1)"></path><path d="M0 157.28L673.62 250L737.26 250L0 149.78z" fill="rgba(0, 0, 0, .075)"></path><path d="M0 149.78L737.26 250L886.03 250L0 63.2z" fill="rgba(0, 0, 0, .05)"></path><path d="M0 63.19999999999999L886.03 250L1214.73 250L0 56.34999999999999z" fill="rgba(0, 0, 0, .025)"></path></g><defs><mask id="SvgjsMask1831"><rect width="2500" height="250" fill="#ffffff"></rect></mask><linearGradient x1="22.5%" y1="-225%" x2="77.5%" y2="325%" gradientUnits="userSpaceOnUse" id="SvgjsLinearGradient1832"><stop stop-color="#0e2a47" offset="0"></stop><stop stop-color="rgba(138, 0, 158, 1)" offset="0.73"></stop></linearGradient></defs></svg>